<?xml version="1.0" encoding="UTF-8" standalone="no"?>
<!DOCTYPE svg PUBLIC "-//W3C//DTD SVG 1.1//EN"
 "http://www.w3.org/Graphics/SVG/1.1/DTD/svg11.dtd">
<!-- Generated by graphviz version 12.0.0 (0)
 -->
<!-- Title: G Pages: 1 -->
<svg width="706pt" height="1742pt"
 viewBox="0.00 0.00 705.57 1742.45" xmlns="http://www.w3.org/2000/svg" xmlns:xlink="http://www.w3.org/1999/xlink">
<g id="graph0" class="graph" transform="scale(1 1) rotate(0) translate(4 1738.45)">
<title>G</title><style>.edge>path:hover{stroke-width:8}</style>
<polygon fill="white" stroke="none" points="-4,4 -4,-1738.45 701.57,-1738.45 701.57,4 -4,4"/>
<!-- foxlin -->
<g id="node1" class="node">
<title>foxlin</title><style>.edge>path:hover{stroke-width:8}</style>
<ellipse fill="#e50505" stroke="black" cx="52.17" cy="-18" rx="27" ry="18"/>
<text text-anchor="middle" x="52.17" y="-14.88" font-family="Helvetica,sans-Serif" font-size="10.00" fill="#ffffff">foxlin</text>
</g>
<!-- foxlin_core -->
<g id="node2" class="node">
<title>foxlin_core</title><style>.edge>path:hover{stroke-width:8}</style>
<ellipse fill="#bd0404" stroke="black" cx="87.17" cy="-90" rx="41.45" ry="18"/>
<text text-anchor="middle" x="87.17" y="-86.88" font-family="Helvetica,sans-Serif" font-size="10.00" fill="#ffffff">foxlin.core</text>
</g>
<!-- foxlin_core&#45;&gt;foxlin -->
<g id="edge1" class="edge">
<title>foxlin_core&#45;&gt;foxlin</title><style>.edge>path:hover{stroke-width:8}</style>
<path fill="none" stroke="black" d="M78.7,-72.05C74.73,-64.12 69.9,-54.47 65.46,-45.59"/>
<polygon fill="#bd0404" stroke="black" points="68.6,-44.04 61,-36.66 62.34,-47.17 68.6,-44.04"/>
</g>
<!-- foxlin_core_box -->
<g id="node3" class="node">
<title>foxlin_core_box</title><style>.edge>path:hover{stroke-width:8}</style>
<ellipse fill="#bf2121" stroke="black" cx="188.17" cy="-535.96" rx="33.06" ry="32.7"/>
<text text-anchor="middle" x="188.17" y="-545.58" font-family="Helvetica,sans-Serif" font-size="10.00" fill="#ffffff">foxlin.</text>
<text text-anchor="middle" x="188.17" y="-532.83" font-family="Helvetica,sans-Serif" font-size="10.00" fill="#ffffff">core.</text>
<text text-anchor="middle" x="188.17" y="-520.08" font-family="Helvetica,sans-Serif" font-size="10.00" fill="#ffffff">box</text>
</g>
<!-- foxlin_core_box&#45;&gt;foxlin_core -->
<g id="edge2" class="edge">
<title>foxlin_core_box&#45;&gt;foxlin_core</title><style>.edge>path:hover{stroke-width:8}</style>
<path fill="none" stroke="black" d="M191.5,-503.16C193.42,-491.55 196.45,-478.51 201.17,-467.25"/>
<path fill="none" stroke="black" d="M201.17,-466.25C214.36,-434.81 209.22,-422.67 201.17,-389.53"/>
<path fill="none" stroke="black" d="M201.17,-387.53C187.28,-330.35 139.06,-336.3 125.17,-279.11"/>
</g>
<!-- foxlin_core_fox -->
<g id="node10" class="node">
<title>foxlin_core_fox</title><style>.edge>path:hover{stroke-width:8}</style>
<ellipse fill="#993333" stroke="black" cx="186.17" cy="-176.7" rx="33.06" ry="32.7"/>
<text text-anchor="middle" x="186.17" y="-186.33" font-family="Helvetica,sans-Serif" font-size="10.00" fill="#ffffff">foxlin.</text>
<text text-anchor="middle" x="186.17" y="-173.58" font-family="Helvetica,sans-Serif" font-size="10.00" fill="#ffffff">core.</text>
<text text-anchor="middle" x="186.17" y="-160.83" font-family="Helvetica,sans-Serif" font-size="10.00" fill="#ffffff">fox</text>
</g>
<!-- foxlin_core_box&#45;&gt;foxlin_core_fox -->
<g id="edge3" class="edge">
<title>foxlin_core_box&#45;&gt;foxlin_core_fox</title><style>.edge>path:hover{stroke-width:8}</style>
<path fill="none" stroke="black" d="M201.17,-387.53C189.12,-337.91 165.94,-330.1 163.17,-279.11"/>
</g>
<!-- foxlin_core_session_database -->
<g id="node19" class="node">
<title>foxlin_core_session_database</title><style>.edge>path:hover{stroke-width:8}</style>
<ellipse fill="#913030" stroke="black" cx="310.17" cy="-388.53" rx="43.13" ry="41.72"/>
<text text-anchor="middle" x="310.17" y="-404.53" font-family="Helvetica,sans-Serif" font-size="10.00" fill="#ffffff">foxlin.</text>
<text text-anchor="middle" x="310.17" y="-391.78" font-family="Helvetica,sans-Serif" font-size="10.00" fill="#ffffff">core.</text>
<text text-anchor="middle" x="310.17" y="-379.03" font-family="Helvetica,sans-Serif" font-size="10.00" fill="#ffffff">session.</text>
<text text-anchor="middle" x="310.17" y="-366.28" font-family="Helvetica,sans-Serif" font-size="10.00" fill="#ffffff">database</text>
</g>
<!-- foxlin_core_box&#45;&gt;foxlin_core_session_database -->
<g id="edge4" class="edge">
<title>foxlin_core_box&#45;&gt;foxlin_core_session_database</title><style>.edge>path:hover{stroke-width:8}</style>
<path fill="none" stroke="black" d="M201.17,-466.25C211.93,-440.6 236.62,-422.12 259.78,-409.74"/>
<polygon fill="#bf2121" stroke="black" points="261.21,-412.94 268.56,-405.32 258.06,-406.69 261.21,-412.94"/>
</g>
<!-- foxlin_core_box_base -->
<g id="node4" class="node">
<title>foxlin_core_box_base</title><style>.edge>path:hover{stroke-width:8}</style>
<ellipse fill="#ca1616" stroke="black" cx="145.17" cy="-765.82" rx="33.06" ry="41.72"/>
<text text-anchor="middle" x="145.17" y="-781.82" font-family="Helvetica,sans-Serif" font-size="10.00" fill="#ffffff">foxlin.</text>
<text text-anchor="middle" x="145.17" y="-769.07" font-family="Helvetica,sans-Serif" font-size="10.00" fill="#ffffff">core.</text>
<text text-anchor="middle" x="145.17" y="-756.32" font-family="Helvetica,sans-Serif" font-size="10.00" fill="#ffffff">box.</text>
<text text-anchor="middle" x="145.17" y="-743.57" font-family="Helvetica,sans-Serif" font-size="10.00" fill="#ffffff">base</text>
</g>
<!-- foxlin_core_box_base&#45;&gt;foxlin_core_box -->
<g id="edge5" class="edge">
<title>foxlin_core_box_base&#45;&gt;foxlin_core_box</title><style>.edge>path:hover{stroke-width:8}</style>
<path fill="none" stroke="black" d="M139.46,-724.47C136.21,-691.55 134.77,-644.2 146.17,-604.66 149.51,-593.08 155.44,-581.54 161.82,-571.35"/>
<polygon fill="#ca1616" stroke="black" points="164.54,-573.57 167.16,-563.3 158.71,-569.7 164.54,-573.57"/>
</g>
<!-- foxlin_core_box_log -->
<g id="node5" class="node">
<title>foxlin_core_box_log</title><style>.edge>path:hover{stroke-width:8}</style>
<ellipse fill="#a13535" stroke="black" cx="188.17" cy="-646.38" rx="33.06" ry="41.72"/>
<text text-anchor="middle" x="188.17" y="-662.38" font-family="Helvetica,sans-Serif" font-size="10.00" fill="#ffffff">foxlin.</text>
<text text-anchor="middle" x="188.17" y="-649.63" font-family="Helvetica,sans-Serif" font-size="10.00" fill="#ffffff">core.</text>
<text text-anchor="middle" x="188.17" y="-636.88" font-family="Helvetica,sans-Serif" font-size="10.00" fill="#ffffff">box.</text>
<text text-anchor="middle" x="188.17" y="-624.13" font-family="Helvetica,sans-Serif" font-size="10.00" fill="#ffffff">log</text>
</g>
<!-- foxlin_core_box_base&#45;&gt;foxlin_core_box_log -->
<g id="edge6" class="edge">
<title>foxlin_core_box_base&#45;&gt;foxlin_core_box_log</title><style>.edge>path:hover{stroke-width:8}</style>
<path fill="none" stroke="black" d="M158.89,-727.34C162.65,-717.07 166.78,-705.79 170.72,-695.04"/>
<polygon fill="#ca1616" stroke="black" points="173.9,-696.52 174.06,-685.93 167.33,-694.11 173.9,-696.52"/>
</g>
<!-- foxlin_core_box_memory -->
<g id="node6" class="node">
<title>foxlin_core_box_memory</title><style>.edge>path:hover{stroke-width:8}</style>
<ellipse fill="#a83838" stroke="black" cx="280.17" cy="-646.38" rx="40.48" ry="41.72"/>
<text text-anchor="middle" x="280.17" y="-662.38" font-family="Helvetica,sans-Serif" font-size="10.00" fill="#ffffff">foxlin.</text>
<text text-anchor="middle" x="280.17" y="-649.63" font-family="Helvetica,sans-Serif" font-size="10.00" fill="#ffffff">core.</text>
<text text-anchor="middle" x="280.17" y="-636.88" font-family="Helvetica,sans-Serif" font-size="10.00" fill="#ffffff">box.</text>
<text text-anchor="middle" x="280.17" y="-624.13" font-family="Helvetica,sans-Serif" font-size="10.00" fill="#ffffff">memory</text>
</g>
<!-- foxlin_core_box_base&#45;&gt;foxlin_core_box_memory -->
<g id="edge7" class="edge">
<title>foxlin_core_box_base&#45;&gt;foxlin_core_box_memory</title><style>.edge>path:hover{stroke-width:8}</style>
<path fill="none" stroke="black" d="M172.16,-741.34C191.86,-724.2 218.87,-700.71 240.94,-681.5"/>
<polygon fill="#ca1616" stroke="black" points="243.06,-684.3 248.31,-675.1 238.46,-679.02 243.06,-684.3"/>
</g>
<!-- foxlin_core_box_storage -->
<g id="node7" class="node">
<title>foxlin_core_box_storage</title><style>.edge>path:hover{stroke-width:8}</style>
<ellipse fill="#932424" stroke="black" cx="62.17" cy="-646.38" rx="37.3" ry="41.72"/>
<text text-anchor="middle" x="62.17" y="-662.38" font-family="Helvetica,sans-Serif" font-size="10.00" fill="#ffffff">foxlin.</text>
<text text-anchor="middle" x="62.17" y="-649.63" font-family="Helvetica,sans-Serif" font-size="10.00" fill="#ffffff">core.</text>
<text text-anchor="middle" x="62.17" y="-636.88" font-family="Helvetica,sans-Serif" font-size="10.00" fill="#ffffff">box.</text>
<text text-anchor="middle" x="62.17" y="-624.13" font-family="Helvetica,sans-Serif" font-size="10.00" fill="#ffffff">storage</text>
</g>
<!-- foxlin_core_box_base&#45;&gt;foxlin_core_box_storage -->
<g id="edge8" class="edge">
<title>foxlin_core_box_base&#45;&gt;foxlin_core_box_storage</title><style>.edge>path:hover{stroke-width:8}</style>
<path fill="none" stroke="black" d="M123.36,-733.96C113.58,-720.12 101.89,-703.58 91.37,-688.69"/>
<polygon fill="#ca1616" stroke="black" points="94.49,-687.05 85.86,-680.91 88.78,-691.09 94.49,-687.05"/>
</g>
<!-- foxlin_core_box_log&#45;&gt;foxlin_core_box -->
<g id="edge9" class="edge">
<title>foxlin_core_box_log&#45;&gt;foxlin_core_box</title><style>.edge>path:hover{stroke-width:8}</style>
<path fill="none" stroke="black" d="M188.17,-604.39C188.17,-596.49 188.17,-588.2 188.17,-580.23"/>
<polygon fill="#a13535" stroke="black" points="191.67,-580.39 188.17,-570.39 184.67,-580.39 191.67,-580.39"/>
</g>
<!-- foxlin_core_box_memory&#45;&gt;foxlin_core_box -->
<g id="edge10" class="edge">
<title>foxlin_core_box_memory&#45;&gt;foxlin_core_box</title><style>.edge>path:hover{stroke-width:8}</style>
<path fill="none" stroke="black" d="M253.81,-614.31C242.02,-600.42 228.12,-584.04 216.15,-569.94"/>
<polygon fill="#a83838" stroke="black" points="219.1,-568 209.97,-562.64 213.77,-572.53 219.1,-568"/>
</g>
<!-- foxlin_core_box_storage&#45;&gt;foxlin_core_box -->
<g id="edge11" class="edge">
<title>foxlin_core_box_storage&#45;&gt;foxlin_core_box</title><style>.edge>path:hover{stroke-width:8}</style>
<path fill="none" stroke="black" d="M91.39,-620.23C110.43,-603.85 135.31,-582.44 155.08,-565.43"/>
<polygon fill="#932424" stroke="black" points="157.32,-568.12 162.62,-558.95 152.75,-562.82 157.32,-568.12"/>
</g>
<!-- foxlin_core_box_storage&#45;&gt;foxlin_core_session_database -->
<g id="edge12" class="edge">
<title>foxlin_core_box_storage&#45;&gt;foxlin_core_session_database</title><style>.edge>path:hover{stroke-width:8}</style>
<path fill="none" stroke="black" d="M79.61,-609.28C94.96,-579.33 119.05,-536.43 146.17,-503.25 177.84,-464.51 225.97,-433.29 261.91,-413.43"/>
<polygon fill="#932424" stroke="black" points="263.24,-416.69 270.37,-408.86 259.91,-410.53 263.24,-416.69"/>
</g>
<!-- foxlin_core_column -->
<g id="node8" class="node">
<title>foxlin_core_column</title><style>.edge>path:hover{stroke-width:8}</style>
<ellipse fill="#df0b0b" stroke="black" cx="470.17" cy="-1456.34" rx="36.77" ry="32.7"/>
<text text-anchor="middle" x="470.17" y="-1465.97" font-family="Helvetica,sans-Serif" font-size="10.00" fill="#ffffff">foxlin.</text>
<text text-anchor="middle" x="470.17" y="-1453.22" font-family="Helvetica,sans-Serif" font-size="10.00" fill="#ffffff">core.</text>
<text text-anchor="middle" x="470.17" y="-1440.47" font-family="Helvetica,sans-Serif" font-size="10.00" fill="#ffffff">column</text>
</g>
<!-- foxlin_core_column&#45;&gt;foxlin -->
<g id="edge13" class="edge">
<title>foxlin_core_column&#45;&gt;foxlin</title><style>.edge>path:hover{stroke-width:8}</style>
<path fill="none" stroke="black" d="M433.18,-1455.7C325.23,-1454.64 18.17,-1435.71 18.17,-1254.53 18.17,-1254.53 18.17,-1254.53 18.17,-1142.1 18.17,-1009.64 57.39,-975.13 35.17,-844.54"/>
<path fill="none" stroke="black" d="M35.17,-843.54C29.85,-824.26 14.57,-826.48 8.17,-807.54 -8.83,-757.25 7.39,-741.18 7.17,-688.1 7.01,-651.02 3.74,-641.59 7.17,-604.66 25.02,-412.43 106.73,-369.77 87.17,-177.7"/>
<path fill="none" stroke="black" d="M87.17,-175.7C80.13,-138.97 48.87,-143.53 37.17,-108 30.58,-87.98 35.06,-64.42 40.79,-46.57"/>
<polygon fill="#df0b0b" stroke="black" points="44.07,-47.79 44.13,-37.19 37.48,-45.44 44.07,-47.79"/>
</g>
<!-- foxlin_core_column&#45;&gt;foxlin_core -->
<g id="edge14" class="edge">
<title>foxlin_core_column&#45;&gt;foxlin_core</title><style>.edge>path:hover{stroke-width:8}</style>
<path fill="none" stroke="black" d="M87.17,-175.7C85.26,-156.99 85.26,-135.82 85.74,-119.33"/>
<polygon fill="#df0b0b" stroke="black" points="89.22,-119.88 86.09,-109.76 82.22,-119.62 89.22,-119.88"/>
</g>
<!-- foxlin_core_column&#45;&gt;foxlin_core_box_storage -->
<g id="edge15" class="edge">
<title>foxlin_core_column&#45;&gt;foxlin_core_box_storage</title><style>.edge>path:hover{stroke-width:8}</style>
<path fill="none" stroke="black" d="M35.17,-843.54C29.45,-809.92 49.09,-797.95 35.17,-766.82"/>
<path fill="none" stroke="black" d="M35.17,-764.82C25.04,-742.17 30.09,-715.3 38.43,-692.99"/>
<polygon fill="#df0b0b" stroke="black" points="41.63,-694.42 42.16,-683.83 35.15,-691.77 41.63,-694.42"/>
</g>
<!-- foxlin_core_database -->
<g id="node9" class="node">
<title>foxlin_core_database</title><style>.edge>path:hover{stroke-width:8}</style>
<ellipse fill="#ef0606" stroke="black" cx="478.17" cy="-1354.93" rx="43.13" ry="32.7"/>
<text text-anchor="middle" x="478.17" y="-1364.56" font-family="Helvetica,sans-Serif" font-size="10.00" fill="#ffffff">foxlin.</text>
<text text-anchor="middle" x="478.17" y="-1351.81" font-family="Helvetica,sans-Serif" font-size="10.00" fill="#ffffff">core.</text>
<text text-anchor="middle" x="478.17" y="-1339.06" font-family="Helvetica,sans-Serif" font-size="10.00" fill="#ffffff">database</text>
</g>
<!-- foxlin_core_column&#45;&gt;foxlin_core_database -->
<g id="edge16" class="edge">
<title>foxlin_core_column&#45;&gt;foxlin_core_database</title><style>.edge>path:hover{stroke-width:8}</style>
<path fill="none" stroke="black" d="M472.74,-1423.34C473.37,-1415.63 474.04,-1407.25 474.69,-1399.12"/>
<polygon fill="#df0b0b" stroke="black" points="478.16,-1399.63 475.48,-1389.38 471.19,-1399.07 478.16,-1399.63"/>
</g>
<!-- foxlin_core_query -->
<g id="node15" class="node">
<title>foxlin_core_query</title><style>.edge>path:hover{stroke-width:8}</style>
<ellipse fill="#b42d2d" stroke="black" cx="619.17" cy="-1253.53" rx="33.06" ry="32.7"/>
<text text-anchor="middle" x="619.17" y="-1263.15" font-family="Helvetica,sans-Serif" font-size="10.00" fill="#ffffff">foxlin.</text>
<text text-anchor="middle" x="619.17" y="-1250.4" font-family="Helvetica,sans-Serif" font-size="10.00" fill="#ffffff">core.</text>
<text text-anchor="middle" x="619.17" y="-1237.65" font-family="Helvetica,sans-Serif" font-size="10.00" fill="#ffffff">query</text>
</g>
<!-- foxlin_core_column&#45;&gt;foxlin_core_query -->
<g id="edge17" class="edge">
<title>foxlin_core_column&#45;&gt;foxlin_core_query</title><style>.edge>path:hover{stroke-width:8}</style>
<path fill="none" stroke="black" d="M498.81,-1435.46C504.55,-1431.52 510.54,-1427.43 516.17,-1423.64 561.61,-1393.05 602.87,-1408.23 619.17,-1355.93"/>
<path fill="none" stroke="black" d="M619.17,-1353.93C624.77,-1335.96 625.6,-1315.25 624.7,-1297.4"/>
<polygon fill="#df0b0b" stroke="black" points="628.21,-1297.38 624.01,-1287.65 621.23,-1297.88 628.21,-1297.38"/>
</g>
<!-- foxlin_core_database&#45;&gt;foxlin_core -->
<g id="edge18" class="edge">
<title>foxlin_core_database&#45;&gt;foxlin_core</title><style>.edge>path:hover{stroke-width:8}</style>
<path fill="none" stroke="black" d="M451.68,-1329.01C432.76,-1310.04 407.81,-1282.52 391.17,-1254.53"/>
<path fill="none" stroke="black" d="M391.17,-1252.53C334.86,-1157.79 246.32,-1221.81 168.17,-1144.1"/>
<path fill="none" stroke="black" d="M168.17,-1142.1C130.17,-1104.32 100.8,-1112.44 75.17,-1065.38 27.68,-978.21 86.81,-935.4 49.17,-843.54 41.48,-824.78 28.15,-826.57 21.17,-807.54 2.88,-757.66 17.28,-741.22 16.17,-688.1 15.39,-651.02 5.22,-640.09 16.17,-604.66 50.36,-494.02 123.98,-498.5 163.17,-389.53"/>
<path fill="none" stroke="black" d="M163.17,-387.53C172.1,-337.26 137.22,-328.73 125.17,-279.11"/>
<path fill="none" stroke="black" d="M125.17,-277.11C110.98,-218.69 114.19,-202.69 101.17,-144 99.37,-135.88 97.17,-127.14 95.05,-119.13"/>
<polygon fill="#ef0606" stroke="black" points="98.45,-118.3 92.45,-109.56 91.69,-120.13 98.45,-118.3"/>
</g>
<!-- foxlin_core_database&#45;&gt;foxlin_core_box_base -->
<g id="edge19" class="edge">
<title>foxlin_core_database&#45;&gt;foxlin_core_box_base</title><style>.edge>path:hover{stroke-width:8}</style>
<path fill="none" stroke="black" d="M168.17,-912.24C164.15,-882.42 182.03,-871.25 168.17,-844.54"/>
<path fill="none" stroke="black" d="M168.17,-843.54C163.89,-835.29 160.28,-826.12 157.27,-817.07"/>
<polygon fill="#ef0606" stroke="black" points="160.65,-816.14 154.36,-807.61 153.96,-818.2 160.65,-816.14"/>
</g>
<!-- foxlin_core_database&#45;&gt;foxlin_core_box_storage -->
<g id="edge20" class="edge">
<title>foxlin_core_database&#45;&gt;foxlin_core_box_storage</title><style>.edge>path:hover{stroke-width:8}</style>
<path fill="none" stroke="black" d="M168.17,-1142.1C132.75,-1105.92 174.93,-964.42 168.17,-914.24"/>
<path fill="none" stroke="black" d="M168.17,-912.24C164.8,-877.9 155.64,-867.81 130.17,-844.54"/>
</g>
<!-- foxlin_core_database&#45;&gt;foxlin_core_fox -->
<g id="edge21" class="edge">
<title>foxlin_core_database&#45;&gt;foxlin_core_fox</title><style>.edge>path:hover{stroke-width:8}</style>
<path fill="none" stroke="black" d="M163.17,-387.53C179.47,-342.19 165.58,-327.24 163.17,-279.11"/>
<path fill="none" stroke="black" d="M163.17,-277.11C162.19,-257.57 166.34,-236.39 171.37,-218.62"/>
<polygon fill="#ef0606" stroke="black" points="174.67,-219.8 174.23,-209.21 167.97,-217.76 174.67,-219.8"/>
</g>
<!-- foxlin_core_operation_base -->
<g id="node12" class="node">
<title>foxlin_core_operation_base</title><style>.edge>path:hover{stroke-width:8}</style>
<ellipse fill="#d31717" stroke="black" cx="317.17" cy="-1143.1" rx="46.32" ry="41.72"/>
<text text-anchor="middle" x="317.17" y="-1159.1" font-family="Helvetica,sans-Serif" font-size="10.00" fill="#ffffff">foxlin.</text>
<text text-anchor="middle" x="317.17" y="-1146.35" font-family="Helvetica,sans-Serif" font-size="10.00" fill="#ffffff">core.</text>
<text text-anchor="middle" x="317.17" y="-1133.6" font-family="Helvetica,sans-Serif" font-size="10.00" fill="#ffffff">operation.</text>
<text text-anchor="middle" x="317.17" y="-1120.85" font-family="Helvetica,sans-Serif" font-size="10.00" fill="#ffffff">base</text>
</g>
<!-- foxlin_core_database&#45;&gt;foxlin_core_operation_base -->
<g id="edge22" class="edge">
<title>foxlin_core_database&#45;&gt;foxlin_core_operation_base</title><style>.edge>path:hover{stroke-width:8}</style>
<path fill="none" stroke="black" d="M391.17,-1252.53C378.16,-1230.64 362.41,-1207.21 348.79,-1187.75"/>
<polygon fill="#ef0606" stroke="black" points="351.8,-1185.93 343.17,-1179.77 346.07,-1189.96 351.8,-1185.93"/>
</g>
<!-- foxlin_core_operation_crud -->
<g id="node13" class="node">
<title>foxlin_core_operation_crud</title><style>.edge>path:hover{stroke-width:8}</style>
<ellipse fill="#a83838" stroke="black" cx="391.17" cy="-1023.66" rx="46.32" ry="41.72"/>
<text text-anchor="middle" x="391.17" y="-1039.66" font-family="Helvetica,sans-Serif" font-size="10.00" fill="#ffffff">foxlin.</text>
<text text-anchor="middle" x="391.17" y="-1026.91" font-family="Helvetica,sans-Serif" font-size="10.00" fill="#ffffff">core.</text>
<text text-anchor="middle" x="391.17" y="-1014.16" font-family="Helvetica,sans-Serif" font-size="10.00" fill="#ffffff">operation.</text>
<text text-anchor="middle" x="391.17" y="-1001.41" font-family="Helvetica,sans-Serif" font-size="10.00" fill="#ffffff">crud</text>
</g>
<!-- foxlin_core_database&#45;&gt;foxlin_core_operation_crud -->
<g id="edge23" class="edge">
<title>foxlin_core_database&#45;&gt;foxlin_core_operation_crud</title><style>.edge>path:hover{stroke-width:8}</style>
<path fill="none" stroke="black" d="M391.17,-1142.1C386.53,-1121.12 385.71,-1097.51 386.35,-1076.99"/>
<polygon fill="#ef0606" stroke="black" points="389.84,-1077.29 386.8,-1067.14 382.85,-1076.97 389.84,-1077.29"/>
</g>
<!-- foxlin_core_operation_io -->
<g id="node14" class="node">
<title>foxlin_core_operation_io</title><style>.edge>path:hover{stroke-width:8}</style>
<ellipse fill="#a83838" stroke="black" cx="280.17" cy="-1023.66" rx="46.32" ry="41.72"/>
<text text-anchor="middle" x="280.17" y="-1039.66" font-family="Helvetica,sans-Serif" font-size="10.00" fill="#ffffff">foxlin.</text>
<text text-anchor="middle" x="280.17" y="-1026.91" font-family="Helvetica,sans-Serif" font-size="10.00" fill="#ffffff">core.</text>
<text text-anchor="middle" x="280.17" y="-1014.16" font-family="Helvetica,sans-Serif" font-size="10.00" fill="#ffffff">operation.</text>
<text text-anchor="middle" x="280.17" y="-1001.41" font-family="Helvetica,sans-Serif" font-size="10.00" fill="#ffffff">io</text>
</g>
<!-- foxlin_core_database&#45;&gt;foxlin_core_operation_io -->
<g id="edge24" class="edge">
<title>foxlin_core_database&#45;&gt;foxlin_core_operation_io</title><style>.edge>path:hover{stroke-width:8}</style>
<path fill="none" stroke="black" d="M391.17,-1252.53C366.55,-1211.1 401.57,-1191.16 391.17,-1144.1"/>
<path fill="none" stroke="black" d="M391.17,-1142.1C386.86,-1122.6 384.35,-1117.21 372.17,-1101.38 364.58,-1091.52 343.98,-1074.12 324.19,-1058.37"/>
<polygon fill="#ef0606" stroke="black" points="326.42,-1055.67 316.4,-1052.23 322.08,-1061.17 326.42,-1055.67"/>
</g>
<!-- foxlin_core_database&#45;&gt;foxlin_core_query -->
<g id="edge25" class="edge">
<title>foxlin_core_database&#45;&gt;foxlin_core_query</title><style>.edge>path:hover{stroke-width:8}</style>
<path fill="none" stroke="black" d="M509.46,-1331.87C531.33,-1316.46 560.57,-1295.84 583.37,-1279.77"/>
<polygon fill="#ef0606" stroke="black" points="585.31,-1282.68 591.46,-1274.06 581.27,-1276.96 585.31,-1282.68"/>
</g>
<!-- foxlin_core_session_base -->
<g id="node17" class="node">
<title>foxlin_core_session_base</title><style>.edge>path:hover{stroke-width:8}</style>
<ellipse fill="#b62020" stroke="black" cx="529.17" cy="-765.82" rx="39.42" ry="41.72"/>
<text text-anchor="middle" x="529.17" y="-781.82" font-family="Helvetica,sans-Serif" font-size="10.00" fill="#ffffff">foxlin.</text>
<text text-anchor="middle" x="529.17" y="-769.07" font-family="Helvetica,sans-Serif" font-size="10.00" fill="#ffffff">core.</text>
<text text-anchor="middle" x="529.17" y="-756.32" font-family="Helvetica,sans-Serif" font-size="10.00" fill="#ffffff">session.</text>
<text text-anchor="middle" x="529.17" y="-743.57" font-family="Helvetica,sans-Serif" font-size="10.00" fill="#ffffff">base</text>
</g>
<!-- foxlin_core_database&#45;&gt;foxlin_core_session_base -->
<g id="edge26" class="edge">
<title>foxlin_core_database&#45;&gt;foxlin_core_session_base</title><style>.edge>path:hover{stroke-width:8}</style>
<path fill="none" stroke="black" d="M391.17,-1252.53C361.84,-1203.18 462.98,-1227.68 501.17,-1184.82 514.45,-1169.91 508.02,-1159.95 520.17,-1144.1"/>
<path fill="none" stroke="black" d="M520.17,-1142.1C536.86,-1120.33 556.01,-1052.01 558.17,-1024.66"/>
<path fill="none" stroke="black" d="M558.17,-1022.66C564.41,-943.74 528.93,-918.11 558.17,-844.54"/>
</g>
<!-- foxlin_core_session_crud -->
<g id="node18" class="node">
<title>foxlin_core_session_crud</title><style>.edge>path:hover{stroke-width:8}</style>
<ellipse fill="#993333" stroke="black" cx="529.17" cy="-646.38" rx="39.42" ry="41.72"/>
<text text-anchor="middle" x="529.17" y="-662.38" font-family="Helvetica,sans-Serif" font-size="10.00" fill="#ffffff">foxlin.</text>
<text text-anchor="middle" x="529.17" y="-649.63" font-family="Helvetica,sans-Serif" font-size="10.00" fill="#ffffff">core.</text>
<text text-anchor="middle" x="529.17" y="-636.88" font-family="Helvetica,sans-Serif" font-size="10.00" fill="#ffffff">session.</text>
<text text-anchor="middle" x="529.17" y="-624.13" font-family="Helvetica,sans-Serif" font-size="10.00" fill="#ffffff">crud</text>
</g>
<!-- foxlin_core_database&#45;&gt;foxlin_core_session_crud -->
<g id="edge27" class="edge">
<title>foxlin_core_database&#45;&gt;foxlin_core_session_crud</title><style>.edge>path:hover{stroke-width:8}</style>
<path fill="none" stroke="black" d="M520.17,-1142.1C545.23,-1109.41 557.02,-1103.69 572.17,-1065.38 597.18,-1002.13 596.17,-982.26 596.17,-914.24 596.17,-914.24 596.17,-914.24 596.17,-843.54 596.17,-789.79 596.02,-774.43 577.17,-724.1 572.7,-712.16 566.24,-700.08 559.5,-689.15"/>
<polygon fill="#ef0606" stroke="black" points="562.45,-687.26 554.1,-680.74 556.56,-691.05 562.45,-687.26"/>
</g>
<!-- foxlin_core_fox&#45;&gt;foxlin_core -->
<g id="edge28" class="edge">
<title>foxlin_core_fox&#45;&gt;foxlin_core</title><style>.edge>path:hover{stroke-width:8}</style>
<path fill="none" stroke="black" d="M161.44,-154.55C147.02,-142.21 128.83,-126.64 114.05,-114"/>
<polygon fill="#993333" stroke="black" points="116.39,-111.39 106.51,-107.55 111.84,-116.71 116.39,-111.39"/>
</g>
<!-- foxlin_core_operation -->
<g id="node11" class="node">
<title>foxlin_core_operation</title><style>.edge>path:hover{stroke-width:8}</style>
<ellipse fill="#e50505" stroke="black" cx="278.17" cy="-913.24" rx="44.19" ry="32.7"/>
<text text-anchor="middle" x="278.17" y="-922.87" font-family="Helvetica,sans-Serif" font-size="10.00" fill="#ffffff">foxlin.</text>
<text text-anchor="middle" x="278.17" y="-910.12" font-family="Helvetica,sans-Serif" font-size="10.00" fill="#ffffff">core.</text>
<text text-anchor="middle" x="278.17" y="-897.37" font-family="Helvetica,sans-Serif" font-size="10.00" fill="#ffffff">operation</text>
</g>
<!-- foxlin_core_operation&#45;&gt;foxlin_core -->
<g id="edge29" class="edge">
<title>foxlin_core_operation&#45;&gt;foxlin_core</title><style>.edge>path:hover{stroke-width:8}</style>
<path fill="none" stroke="black" d="M348.17,-843.54C415.2,-749.98 399.04,-708.74 448.17,-604.66 455.89,-588.3 460.81,-585.6 467.17,-568.66 483.44,-525.3 491.17,-513.57 491.17,-467.25 491.17,-467.25 491.17,-467.25 491.17,-387.53 491.17,-323.8 487.43,-304.94 510.17,-245.41 523.15,-211.42 579.44,-205.67 556.17,-177.7"/>
<path fill="none" stroke="black" d="M556.17,-175.7C502.69,-113.53 250.81,-96.86 139.86,-92.5"/>
<polygon fill="#e50505" stroke="black" points="140.26,-89.01 130.14,-92.13 140,-96 140.26,-89.01"/>
</g>
<!-- foxlin_core_operation&#45;&gt;foxlin_core_box_base -->
<g id="edge30" class="edge">
<title>foxlin_core_operation&#45;&gt;foxlin_core_box_base</title><style>.edge>path:hover{stroke-width:8}</style>
<path fill="none" stroke="black" d="M237.58,-899.4C212.39,-889.02 182.22,-871.61 168.17,-844.54"/>
</g>
<!-- foxlin_core_operation&#45;&gt;foxlin_core_box_log -->
<g id="edge31" class="edge">
<title>foxlin_core_operation&#45;&gt;foxlin_core_box_log</title><style>.edge>path:hover{stroke-width:8}</style>
<path fill="none" stroke="black" d="M307.48,-888.26C321.04,-876.14 336.65,-860.62 348.17,-844.54"/>
<path fill="none" stroke="black" d="M348.17,-843.54C368.03,-815.82 357.7,-799.56 348.17,-766.82"/>
<path fill="none" stroke="black" d="M348.17,-764.82C330.78,-705.12 279.94,-726.68 231.17,-688.1 228.27,-685.8 225.33,-683.35 222.43,-680.82"/>
<polygon fill="#e50505" stroke="black" points="224.78,-678.23 215.01,-674.14 220.1,-683.43 224.78,-678.23"/>
</g>
<!-- foxlin_core_operation&#45;&gt;foxlin_core_box_memory -->
<g id="edge32" class="edge">
<title>foxlin_core_operation&#45;&gt;foxlin_core_box_memory</title><style>.edge>path:hover{stroke-width:8}</style>
<path fill="none" stroke="black" d="M348.17,-764.82C340.34,-737.94 325.14,-710.72 311.08,-689.26"/>
<polygon fill="#e50505" stroke="black" points="314.07,-687.43 305.58,-681.08 308.26,-691.33 314.07,-687.43"/>
</g>
<!-- foxlin_core_operation&#45;&gt;foxlin_core_box_storage -->
<g id="edge33" class="edge">
<title>foxlin_core_operation&#45;&gt;foxlin_core_box_storage</title><style>.edge>path:hover{stroke-width:8}</style>
<path fill="none" stroke="black" d="M236.5,-901.4C204.19,-891.22 160.04,-873.19 130.17,-844.54"/>
</g>
<!-- foxlin_core_operation&#45;&gt;foxlin_core_fox -->
<g id="edge34" class="edge">
<title>foxlin_core_operation&#45;&gt;foxlin_core_fox</title><style>.edge>path:hover{stroke-width:8}</style>
<path fill="none" stroke="black" d="M348.17,-764.82C310.9,-636.81 350.32,-594.39 310.17,-467.25"/>
<path fill="none" stroke="black" d="M310.17,-466.25C301.33,-439.57 276.72,-451.38 258.17,-430.25 230.64,-398.9 237.52,-382.04 215.17,-346.81 194.84,-314.78 165.22,-317 163.17,-279.11"/>
</g>
<!-- foxlin_core_operation&#45;&gt;foxlin_core_session_base -->
<g id="edge35" class="edge">
<title>foxlin_core_operation&#45;&gt;foxlin_core_session_base</title><style>.edge>path:hover{stroke-width:8}</style>
<path fill="none" stroke="black" d="M320.59,-902.91C398.34,-885.69 555.94,-850.14 558.17,-844.54"/>
<path fill="none" stroke="black" d="M558.17,-843.54C562.43,-832.82 561.09,-821.2 557.27,-810.33"/>
<polygon fill="#e50505" stroke="black" points="560.49,-808.97 553.33,-801.16 554.06,-811.73 560.49,-808.97"/>
</g>
<!-- foxlin_core_operation&#45;&gt;foxlin_core_session_crud -->
<g id="edge36" class="edge">
<title>foxlin_core_operation&#45;&gt;foxlin_core_session_crud</title><style>.edge>path:hover{stroke-width:8}</style>
<path fill="none" stroke="black" d="M315.12,-895.09C350.33,-877.25 403.05,-846.5 438.17,-807.54 466.1,-776.55 460.53,-760.36 481.17,-724.1 487.36,-713.23 494.34,-701.7 501.02,-690.97"/>
<polygon fill="#e50505" stroke="black" points="503.88,-692.99 506.24,-682.66 497.96,-689.27 503.88,-692.99"/>
</g>
<!-- foxlin_core_operation&#45;&gt;foxlin_core_session_database -->
<g id="edge37" class="edge">
<title>foxlin_core_operation&#45;&gt;foxlin_core_session_database</title><style>.edge>path:hover{stroke-width:8}</style>
<path fill="none" stroke="black" d="M310.17,-466.25C307.72,-458.48 306.43,-450.04 305.91,-441.7"/>
<polygon fill="#e50505" stroke="black" points="309.41,-441.87 305.65,-431.96 302.41,-442.05 309.41,-441.87"/>
</g>
<!-- foxlin_core_operation_base&#45;&gt;foxlin_core_box_log -->
<g id="edge38" class="edge">
<title>foxlin_core_operation_base&#45;&gt;foxlin_core_box_log</title><style>.edge>path:hover{stroke-width:8}</style>
<path fill="none" stroke="black" d="M279.34,-1118.68C250.81,-1098.13 215.1,-1065.21 206.17,-1024.66"/>
<path fill="none" stroke="black" d="M206.17,-1022.66C192.96,-962.69 189.44,-787.91 188.51,-699.66"/>
<polygon fill="#d31717" stroke="black" points="192.01,-699.79 188.41,-689.83 185.01,-699.86 192.01,-699.79"/>
</g>
<!-- foxlin_core_operation_base&#45;&gt;foxlin_core_operation -->
<g id="edge39" class="edge">
<title>foxlin_core_operation_base&#45;&gt;foxlin_core_operation</title><style>.edge>path:hover{stroke-width:8}</style>
<path fill="none" stroke="black" d="M206.17,-1022.66C199.69,-993.25 219.48,-965.07 239.94,-944.81"/>
<polygon fill="#d31717" stroke="black" points="242.07,-947.62 246.96,-938.22 237.28,-942.51 242.07,-947.62"/>
</g>
<!-- foxlin_core_operation_base&#45;&gt;foxlin_core_operation_crud -->
<g id="edge40" class="edge">
<title>foxlin_core_operation_base&#45;&gt;foxlin_core_operation_crud</title><style>.edge>path:hover{stroke-width:8}</style>
<path fill="none" stroke="black" d="M339.77,-1106.23C347.02,-1094.73 355.13,-1081.85 362.74,-1069.78"/>
<polygon fill="#d31717" stroke="black" points="365.53,-1071.93 367.9,-1061.6 359.6,-1068.19 365.53,-1071.93"/>
</g>
<!-- foxlin_core_operation_base&#45;&gt;foxlin_core_operation_io -->
<g id="edge41" class="edge">
<title>foxlin_core_operation_base&#45;&gt;foxlin_core_operation_io</title><style>.edge>path:hover{stroke-width:8}</style>
<path fill="none" stroke="black" d="M304.75,-1102.67C301.94,-1093.76 298.92,-1084.19 296,-1074.9"/>
<polygon fill="#d31717" stroke="black" points="299.42,-1074.12 293.08,-1065.64 292.74,-1076.23 299.42,-1074.12"/>
</g>
<!-- foxlin_core_operation_crud&#45;&gt;foxlin_core_operation -->
<g id="edge42" class="edge">
<title>foxlin_core_operation_crud&#45;&gt;foxlin_core_operation</title><style>.edge>path:hover{stroke-width:8}</style>
<path fill="none" stroke="black" d="M359.69,-992.46C345.04,-978.4 327.56,-961.64 312.56,-947.24"/>
<polygon fill="#a83838" stroke="black" points="315.24,-944.96 305.61,-940.57 310.4,-950.02 315.24,-944.96"/>
</g>
<!-- foxlin_core_operation_io&#45;&gt;foxlin_core_operation -->
<g id="edge43" class="edge">
<title>foxlin_core_operation_io&#45;&gt;foxlin_core_operation</title><style>.edge>path:hover{stroke-width:8}</style>
<path fill="none" stroke="black" d="M279.41,-981.67C279.27,-973.78 279.11,-965.48 278.97,-957.52"/>
<polygon fill="#a83838" stroke="black" points="282.47,-957.61 278.79,-947.68 275.47,-957.74 282.47,-957.61"/>
</g>
<!-- foxlin_core_query&#45;&gt;foxlin_core -->
<g id="edge44" class="edge">
<title>foxlin_core_query&#45;&gt;foxlin_core</title><style>.edge>path:hover{stroke-width:8}</style>
<path fill="none" stroke="black" d="M634.17,-764.82C573.49,-508.68 727.84,-377.26 556.17,-177.7"/>
</g>
<!-- foxlin_core_query&#45;&gt;foxlin_core_session_crud -->
<g id="edge45" class="edge">
<title>foxlin_core_query&#45;&gt;foxlin_core_session_crud</title><style>.edge>path:hover{stroke-width:8}</style>
<path fill="none" stroke="black" d="M622.57,-1220.87C627,-1176.9 634.17,-1094.84 634.17,-1024.66 634.17,-1024.66 634.17,-1024.66 634.17,-912.24 634.17,-847.61 647.46,-830.07 634.17,-766.82"/>
<path fill="none" stroke="black" d="M634.17,-764.82C625.6,-728.63 596.51,-697.76 571.12,-676.76"/>
<polygon fill="#b42d2d" stroke="black" points="573.52,-674.19 563.52,-670.69 569.15,-679.67 573.52,-674.19"/>
</g>
<!-- foxlin_core_session -->
<g id="node16" class="node">
<title>foxlin_core_session</title><style>.edge>path:hover{stroke-width:8}</style>
<ellipse fill="#bc2f2f" stroke="black" cx="556.17" cy="-278.11" rx="37.3" ry="32.7"/>
<text text-anchor="middle" x="556.17" y="-287.74" font-family="Helvetica,sans-Serif" font-size="10.00" fill="#ffffff">foxlin.</text>
<text text-anchor="middle" x="556.17" y="-274.99" font-family="Helvetica,sans-Serif" font-size="10.00" fill="#ffffff">core.</text>
<text text-anchor="middle" x="556.17" y="-262.24" font-family="Helvetica,sans-Serif" font-size="10.00" fill="#ffffff">session</text>
</g>
<!-- foxlin_core_session&#45;&gt;foxlin_core -->
<g id="edge46" class="edge">
<title>foxlin_core_session&#45;&gt;foxlin_core</title><style>.edge>path:hover{stroke-width:8}</style>
<path fill="none" stroke="black" d="M565.59,-246.28C570.15,-224.67 571.73,-196.41 556.17,-177.7"/>
</g>
<!-- foxlin_core_session&#45;&gt;foxlin_core_fox -->
<g id="edge47" class="edge">
<title>foxlin_core_session&#45;&gt;foxlin_core_fox</title><style>.edge>path:hover{stroke-width:8}</style>
<path fill="none" stroke="black" d="M520.36,-267.49C451.87,-249.09 302.62,-208.99 229,-189.21"/>
<polygon fill="#bc2f2f" stroke="black" points="230.3,-185.94 219.74,-186.72 228.49,-192.7 230.3,-185.94"/>
</g>
<!-- foxlin_core_session_base&#45;&gt;foxlin_core_session -->
<g id="edge48" class="edge">
<title>foxlin_core_session_base&#45;&gt;foxlin_core_session</title><style>.edge>path:hover{stroke-width:8}</style>
<path fill="none" stroke="black" d="M462.17,-645.38C459.64,-625.57 471.13,-621.93 481.17,-604.66 499.71,-572.77 523.76,-573.44 529.17,-536.96"/>
<path fill="none" stroke="black" d="M529.17,-534.96C540.21,-460.56 548.4,-373.35 552.72,-322.36"/>
<polygon fill="#b62020" stroke="black" points="556.19,-322.89 553.54,-312.64 549.22,-322.31 556.19,-322.89"/>
</g>
<!-- foxlin_core_session_base&#45;&gt;foxlin_core_session_crud -->
<g id="edge49" class="edge">
<title>foxlin_core_session_base&#45;&gt;foxlin_core_session_crud</title><style>.edge>path:hover{stroke-width:8}</style>
<path fill="none" stroke="black" d="M529.17,-723.74C529.17,-715.92 529.17,-707.64 529.17,-699.52"/>
<polygon fill="#b62020" stroke="black" points="532.67,-699.75 529.17,-689.75 525.67,-699.75 532.67,-699.75"/>
</g>
<!-- foxlin_core_session_base&#45;&gt;foxlin_core_session_database -->
<g id="edge50" class="edge">
<title>foxlin_core_session_base&#45;&gt;foxlin_core_session_database</title><style>.edge>path:hover{stroke-width:8}</style>
<path fill="none" stroke="black" d="M502.93,-734.41C485.98,-712.04 466.34,-679.98 462.17,-647.38"/>
<path fill="none" stroke="black" d="M462.17,-645.38C456.04,-597.42 446.98,-584.91 453.17,-536.96"/>
</g>
<!-- foxlin_core_session_crud&#45;&gt;foxlin_core_session -->
<g id="edge51" class="edge">
<title>foxlin_core_session_crud&#45;&gt;foxlin_core_session</title><style>.edge>path:hover{stroke-width:8}</style>
<path fill="none" stroke="black" d="M526.34,-604.5C525.65,-584.1 525.88,-559.11 529.17,-536.96"/>
</g>
<!-- foxlin_core_session_database&#45;&gt;foxlin_core_session -->
<g id="edge52" class="edge">
<title>foxlin_core_session_database&#45;&gt;foxlin_core_session</title><style>.edge>path:hover{stroke-width:8}</style>
<path fill="none" stroke="black" d="M349.42,-370.23C393.97,-350.6 466.43,-318.66 512.67,-298.28"/>
<polygon fill="#913030" stroke="black" points="513.85,-301.59 521.59,-294.35 511.03,-295.18 513.85,-301.59"/>
</g>
<!-- foxlin_core_utils -->
<g id="node20" class="node">
<title>foxlin_core_utils</title><style>.edge>path:hover{stroke-width:8}</style>
<ellipse fill="#d92626" stroke="black" cx="558.17" cy="-1456.34" rx="33.06" ry="32.7"/>
<text text-anchor="middle" x="558.17" y="-1465.97" font-family="Helvetica,sans-Serif" font-size="10.00" fill="#ffffff">foxlin.</text>
<text text-anchor="middle" x="558.17" y="-1453.22" font-family="Helvetica,sans-Serif" font-size="10.00" fill="#ffffff">core.</text>
<text text-anchor="middle" x="558.17" y="-1440.47" font-family="Helvetica,sans-Serif" font-size="10.00" fill="#ffffff">utils</text>
</g>
<!-- foxlin_core_utils&#45;&gt;foxlin_core_database -->
<g id="edge53" class="edge">
<title>foxlin_core_utils&#45;&gt;foxlin_core_database</title><style>.edge>path:hover{stroke-width:8}</style>
<path fill="none" stroke="black" d="M537.77,-1430C528.54,-1418.52 517.44,-1404.74 507.35,-1392.19"/>
<polygon fill="#d92626" stroke="black" points="510.16,-1390.1 501.16,-1384.5 504.7,-1394.49 510.16,-1390.1"/>
</g>
<!-- foxlin_core_utils&#45;&gt;foxlin_core_query -->
<g id="edge54" class="edge">
<title>foxlin_core_utils&#45;&gt;foxlin_core_query</title><style>.edge>path:hover{stroke-width:8}</style>
<path fill="none" stroke="black" d="M578.6,-1430.09C592.78,-1410.97 610.61,-1383.38 619.17,-1355.93"/>
</g>
<!-- foxlin_core_utils&#45;&gt;foxlin_core_session_base -->
<g id="edge55" class="edge">
<title>foxlin_core_utils&#45;&gt;foxlin_core_session_base</title><style>.edge>path:hover{stroke-width:8}</style>
<path fill="none" stroke="black" d="M557.43,-1423.18C555.94,-1351.57 553.15,-1173.56 558.17,-1024.66"/>
</g>
<!-- foxlin_errors -->
<g id="node21" class="node">
<title>foxlin_errors</title><style>.edge>path:hover{stroke-width:8}</style>
<ellipse fill="#cc3333" stroke="black" cx="484.17" cy="-913.24" rx="46.04" ry="18"/>
<text text-anchor="middle" x="484.17" y="-910.12" font-family="Helvetica,sans-Serif" font-size="10.00" fill="#ffffff">foxlin.errors</text>
</g>
<!-- foxlin_errors&#45;&gt;foxlin_core_box_storage -->
<g id="edge56" class="edge">
<title>foxlin_errors&#45;&gt;foxlin_core_box_storage</title><style>.edge>path:hover{stroke-width:8}</style>
<path fill="none" stroke="black" d="M462.86,-896.94C439.39,-880.9 399.94,-856.29 362.17,-843.54 220.73,-795.8 97.68,-902.38 35.17,-766.82"/>
</g>
<!-- foxlin_errors&#45;&gt;foxlin_core_session_database -->
<g id="edge57" class="edge">
<title>foxlin_errors&#45;&gt;foxlin_core_session_database</title><style>.edge>path:hover{stroke-width:8}</style>
<path fill="none" stroke="black" d="M480.42,-894.92C472.52,-857.43 454.38,-765.89 448.17,-688.1 445.22,-651.13 446.8,-641.72 448.17,-604.66 449.28,-574.51 449.31,-566.88 453.17,-536.96"/>
<path fill="none" stroke="black" d="M453.17,-534.96C452.79,-479.84 400,-437.98 358.68,-413.64"/>
<polygon fill="#cc3333" stroke="black" points="360.46,-410.63 350.04,-408.73 357,-416.71 360.46,-410.63"/>
</g>
<!-- foxlin_errors_base -->
<g id="node22" class="node">
<title>foxlin_errors_base</title><style>.edge>path:hover{stroke-width:8}</style>
<ellipse fill="#c24747" stroke="black" cx="458.17" cy="-1143.1" rx="33.59" ry="32.7"/>
<text text-anchor="middle" x="458.17" y="-1152.73" font-family="Helvetica,sans-Serif" font-size="10.00" fill="#ffffff">foxlin.</text>
<text text-anchor="middle" x="458.17" y="-1139.98" font-family="Helvetica,sans-Serif" font-size="10.00" fill="#ffffff">errors.</text>
<text text-anchor="middle" x="458.17" y="-1127.23" font-family="Helvetica,sans-Serif" font-size="10.00" fill="#ffffff">base</text>
</g>
<!-- foxlin_errors_storage -->
<g id="node23" class="node">
<title>foxlin_errors_storage</title><style>.edge>path:hover{stroke-width:8}</style>
<ellipse fill="#c04040" stroke="black" cx="493.17" cy="-1023.66" rx="37.3" ry="32.7"/>
<text text-anchor="middle" x="493.17" y="-1033.29" font-family="Helvetica,sans-Serif" font-size="10.00" fill="#ffffff">foxlin.</text>
<text text-anchor="middle" x="493.17" y="-1020.54" font-family="Helvetica,sans-Serif" font-size="10.00" fill="#ffffff">errors.</text>
<text text-anchor="middle" x="493.17" y="-1007.79" font-family="Helvetica,sans-Serif" font-size="10.00" fill="#ffffff">storage</text>
</g>
<!-- foxlin_errors_base&#45;&gt;foxlin_errors_storage -->
<g id="edge58" class="edge">
<title>foxlin_errors_base&#45;&gt;foxlin_errors_storage</title><style>.edge>path:hover{stroke-width:8}</style>
<path fill="none" stroke="black" d="M467.36,-1111.25C471.43,-1097.6 476.28,-1081.34 480.67,-1066.61"/>
<polygon fill="#c24747" stroke="black" points="483.98,-1067.76 483.48,-1057.17 477.27,-1065.76 483.98,-1067.76"/>
</g>
<!-- foxlin_errors_storage&#45;&gt;foxlin_errors -->
<g id="edge59" class="edge">
<title>foxlin_errors_storage&#45;&gt;foxlin_errors</title><style>.edge>path:hover{stroke-width:8}</style>
<path fill="none" stroke="black" d="M490.52,-990.72C489.26,-975.59 487.77,-957.66 486.55,-942.97"/>
<polygon fill="#c04040" stroke="black" points="490.04,-942.7 485.73,-933.03 483.07,-943.28 490.04,-942.7"/>
</g>
<!-- foxlin_utils -->
<g id="node24" class="node">
<title>foxlin_utils</title><style>.edge>path:hover{stroke-width:8}</style>
<ellipse fill="#c04040" stroke="black" cx="354.17" cy="-1615.04" rx="41.45" ry="18"/>
<text text-anchor="middle" x="354.17" y="-1611.92" font-family="Helvetica,sans-Serif" font-size="10.00" fill="#ffffff">foxlin.utils</text>
</g>
<!-- foxlin_utils&#45;&gt;foxlin_core_column -->
<g id="edge60" class="edge">
<title>foxlin_utils&#45;&gt;foxlin_core_column</title><style>.edge>path:hover{stroke-width:8}</style>
<path fill="none" stroke="black" d="M386.51,-1603.33C411.95,-1592.84 445.03,-1574 457.17,-1544.04"/>
<path fill="none" stroke="black" d="M457.17,-1542.04C462.45,-1529.01 465.6,-1514.05 467.48,-1500.37"/>
<polygon fill="#c04040" stroke="black" points="470.92,-1501.08 468.6,-1490.75 463.97,-1500.27 470.92,-1501.08"/>
</g>
<!-- foxlin_utils_id_generator -->
<g id="node25" class="node">
<title>foxlin_utils_id_generator</title><style>.edge>path:hover{stroke-width:8}</style>
<ellipse fill="#c24747" stroke="black" cx="354.17" cy="-1701.75" rx="54.8" ry="32.7"/>
<text text-anchor="middle" x="354.17" y="-1711.37" font-family="Helvetica,sans-Serif" font-size="10.00" fill="#ffffff">foxlin.</text>
<text text-anchor="middle" x="354.17" y="-1698.62" font-family="Helvetica,sans-Serif" font-size="10.00" fill="#ffffff">utils.</text>
<text text-anchor="middle" x="354.17" y="-1685.87" font-family="Helvetica,sans-Serif" font-size="10.00" fill="#ffffff">id_generator</text>
</g>
<!-- foxlin_utils_id_generator&#45;&gt;foxlin_utils -->
<g id="edge61" class="edge">
<title>foxlin_utils_id_generator&#45;&gt;foxlin_utils</title><style>.edge>path:hover{stroke-width:8}</style>
<path fill="none" stroke="black" d="M354.17,-1668.73C354.17,-1660.85 354.17,-1652.48 354.17,-1644.77"/>
<polygon fill="#c24747" stroke="black" points="357.67,-1644.9 354.17,-1634.9 350.67,-1644.9 357.67,-1644.9"/>
</g>
<!-- numpy -->
<g id="node26" class="node">
<title>numpy</title><style>.edge>path:hover{stroke-width:8}</style>
<ellipse fill="#a6c040" stroke="black" cx="457.17" cy="-1701.75" rx="30.44" ry="18"/>
<text text-anchor="middle" x="457.17" y="-1698.62" font-family="Helvetica,sans-Serif" font-size="10.00" fill="#000000">numpy</text>
</g>
<!-- numpy&#45;&gt;foxlin_core_column -->
<g id="edge62" class="edge">
<title>numpy&#45;&gt;foxlin_core_column</title><style>.edge>path:hover{stroke-width:8}</style>
<path fill="none" stroke="black" d="M453.1,-1683.49C446.97,-1653.74 437.97,-1591.45 457.17,-1544.04"/>
</g>
<!-- orjson -->
<g id="node27" class="node">
<title>orjson</title><style>.edge>path:hover{stroke-width:8}</style>
<ellipse fill="#53b67b" stroke="black" cx="112.17" cy="-1023.66" rx="28.15" ry="18"/>
<text text-anchor="middle" x="112.17" y="-1020.54" font-family="Helvetica,sans-Serif" font-size="10.00" fill="#000000">orjson</text>
</g>
<!-- orjson&#45;&gt;foxlin_core_box_storage -->
<g id="edge63" class="edge">
<title>orjson&#45;&gt;foxlin_core_box_storage</title><style>.edge>path:hover{stroke-width:8}</style>
<path fill="none" stroke="black" d="M121.22,-1006.21C139.35,-970.82 174.7,-887.25 130.17,-844.54"/>
<path fill="none" stroke="black" d="M130.17,-843.54C90.1,-806.93 57.32,-816.36 35.17,-766.82"/>
</g>
<!-- pydantic -->
<g id="node28" class="node">
<title>pydantic</title><style>.edge>path:hover{stroke-width:8}</style>
<ellipse fill="#4073c0" stroke="black" cx="541.17" cy="-1701.75" rx="35.49" ry="18"/>
<text text-anchor="middle" x="541.17" y="-1698.62" font-family="Helvetica,sans-Serif" font-size="10.00" fill="#ffffff">pydantic</text>
</g>
<!-- pydantic&#45;&gt;foxlin_core_utils -->
<g id="edge64" class="edge">
<title>pydantic&#45;&gt;foxlin_core_utils</title><style>.edge>path:hover{stroke-width:8}</style>
<path fill="none" stroke="black" d="M542.36,-1683.63C544.99,-1646.03 551.33,-1555.23 555.14,-1500.76"/>
<polygon fill="#4073c0" stroke="black" points="558.62,-1501.13 555.82,-1490.91 551.64,-1500.64 558.62,-1501.13"/>
</g>
<!-- typing_extensions -->
<g id="node29" class="node">
<title>typing_extensions</title><style>.edge>path:hover{stroke-width:8}</style>
<ellipse fill="#a253b6" stroke="black" cx="633.17" cy="-1543.04" rx="64.4" ry="18"/>
<text text-anchor="middle" x="633.17" y="-1539.92" font-family="Helvetica,sans-Serif" font-size="10.00" fill="#ffffff">typing_extensions</text>
</g>
<!-- typing_extensions&#45;&gt;foxlin_core_query -->
<g id="edge65" class="edge">
<title>typing_extensions&#45;&gt;foxlin_core_query</title><style>.edge>path:hover{stroke-width:8}</style>
<path fill="none" stroke="black" d="M627.66,-1524.63C617.97,-1491.1 600.56,-1415.64 619.17,-1355.93"/>
</g>
</g>
</svg>
